<?xml version="1.0" encoding="utf-8"?>
<!-- Generator: Adobe Illustrator 16.0.0, SVG Export Plug-In . SVG Version: 6.00 Build 0)  -->
<!DOCTYPE svg PUBLIC "-//W3C//DTD SVG 1.1//EN" "http://www.w3.org/Graphics/SVG/1.1/DTD/svg11.dtd">
<svg version="1.1" id="圖層_1" xmlns="http://www.w3.org/2000/svg" xmlns:xlink="http://www.w3.org/1999/xlink" x="0px" y="0px"
	 width="205.5px" height="76px" viewBox="0 0 205.5 76" enable-background="new 0 0 205.5 76" xml:space="preserve">
<g>
	<path d="M82.958,50.898l2.838,0.029c1.462,0.117,2.194,0.508,2.194,1.172c0,0.333-0.264,0.498-0.79,0.498
		c-2.556,0-4.497,0.059-5.823,0.176L70.014,66.484l-1.552,2.051c-0.823,0.977-1.49,1.465-2,1.465c-0.353,0-0.691-0.166-1.014-0.498
		c-0.324-0.332-0.485-0.674-0.485-1.025c0-0.625,1.836-3.262,5.511-7.91l6.302-7.734l-15.089,0.586
		c-5.606,5.84-9.435,9.668-11.486,11.484c-5.783,5.117-10.324,7.676-13.625,7.676c-1.465,0-2.677-0.459-3.634-1.377
		c-0.957-0.918-1.436-2.109-1.436-3.574c0-3.496,2.228-6.948,6.684-10.356c4.456-3.408,11.316-5.259,20.58-5.552
		c12.566-13.554,18.878-20.684,18.937-21.387l-0.176-0.176c-1.348,0.04-4.258,1.455-8.73,4.248l-6.68,4.189
		c-0.254,0-0.381-0.127-0.381-0.381c0-0.898,2.695-2.875,8.086-5.933c5.391-3.057,8.799-4.585,10.225-4.585
		c0.508,0,1.015,0.195,1.523,0.586c0.508,0.391,0.762,0.831,0.762,1.318c0,0.703-1.542,2.744-4.627,6.123l-14.467,15.85
		l15.205-0.674c12.115-13.964,18.632-20.947,19.551-20.947c0.829,0,1.243,0.342,1.243,1.025c0,0.508-0.703,1.553-2.108,3.135
		C91.84,40.088,87.116,45.684,82.958,50.898z M57.213,53.477c-4.607,0.137-8.306,0.743-11.097,1.816
		c-3.202,1.211-6.227,3.369-9.077,6.475c-2.479,2.715-3.718,4.912-3.718,6.592c0,1.484,0.868,2.227,2.606,2.227
		c1.112,0,2.469-0.488,4.07-1.465c1.815-1.094,4.772-3.535,8.871-7.324C52.597,58.359,55.378,55.586,57.213,53.477z"/>
	<path d="M89.044,68.214c0,0.526,0.574,0.79,1.723,0.79c0.257,0,0.386,0.161,0.386,0.482c0,0.382-0.649,0.573-1.947,0.573
		c-1.476,0-2.213-0.703-2.213-2.109c0-1.641,2.178-5.068,6.533-10.283l-7.998,6.533C80.802,68.066,77.375,70,75.246,70
		c-0.234,0-0.352-0.13-0.352-0.392c0-0.362,0.195-0.583,0.586-0.663c1.23-0.233,2.354-0.633,3.369-1.199
		c1.27-0.702,3.965-2.68,8.086-5.936l8.965-7.515c0.391-0.136,0.918-0.205,1.582-0.205c0.664,0,0.996,0.38,0.996,1.14
		c0,0.819-1.572,3.027-4.717,6.623C90.616,65.452,89.044,67.572,89.044,68.214z M101.994,47.939c-0.938,0-1.406-0.479-1.406-1.436
		c0-0.801,0.479-1.523,1.436-2.168c0.859-0.586,1.718-0.879,2.578-0.879c1.015,0,1.523,0.557,1.523,1.67
		c0,0.801-0.508,1.484-1.523,2.051C103.722,47.686,102.853,47.939,101.994,47.939z"/>
	<path d="M107.238,57.051c-0.098-0.645-0.146-1.035-0.146-1.172c0-0.527,0.63-1.352,1.89-2.476c1.26-1.123,2.124-1.685,2.593-1.685
		c0.449,0,0.674,0.205,0.674,0.615c0,0.352-0.245,0.938-0.732,1.758c2.207,0,3.311,0.877,3.311,2.632
		c0,1.384-1.421,3.591-4.263,6.623c-2.842,3.032-4.263,4.732-4.263,5.103c0,0.351,0.183,0.545,0.548,0.584l0.952-0.029
		c0.269,0,0.404,0.161,0.404,0.481c0,0.402-0.567,0.603-1.699,0.603c-1.446,0-2.168-0.645-2.168-1.934c0-1.27,0.72-2.852,2.16-4.746
		c0.896-1.191,2.229-2.666,4-4.424c1.44-1.425,2.16-2.207,2.16-2.344c0-0.293-0.165-0.439-0.494-0.439
		c-0.291,0-0.843,0.113-1.656,0.337c-0.814,0.225-1.298,0.406-1.453,0.542C99.972,65.693,93.849,70,90.685,70
		c-0.234,0-0.352-0.13-0.352-0.392c0-0.342,0.264-0.563,0.791-0.663c0.645-0.117,1.494-0.419,2.549-0.906
		c1.582-0.702,3.945-2.367,7.09-4.998C103.556,60.724,105.714,58.726,107.238,57.051z"/>
	<path d="M120.685,62.178l-6.035,4.6c-3.086,2.149-5.391,3.223-6.914,3.223c-0.234,0-0.352-0.121-0.352-0.362
		c0-0.381,0.195-0.612,0.586-0.693c1.191-0.214,2.208-0.555,3.047-1.023c1.465-0.799,3.848-2.505,7.148-5.117l7.734-6.344
		c1.484-1.306,2.392-1.959,2.725-1.959c0.493,0,1.035,0.274,1.626,0.82c1.129-0.859,2.132-1.289,3.009-1.289
		c1.324,0,1.986,0.713,1.986,2.139c0,2.129-1.699,5.029-5.098,8.701c-3.457,3.711-6.25,5.566-8.379,5.566
		c-1.992,0-2.988-1.044-2.988-3.135C118.781,66.211,119.415,64.502,120.685,62.178z M127.746,58.574
		c-3.984,3.487-5.977,6.328-5.977,8.521c0,0.94,0.449,1.41,1.348,1.41c1.465,0,3.75-1.775,6.855-5.326
		c-1.641-0.391-2.461-1.447-2.461-3.168C127.511,59.562,127.589,59.083,127.746,58.574z M130.617,62.238
		c0.722-0.687,1.445-1.618,2.168-2.796c0.801-1.353,1.201-2.432,1.201-3.236c0-0.745-0.322-1.118-0.967-1.118
		c-0.957,0-1.919,0.604-2.886,1.81c-0.967,1.207-1.45,2.3-1.45,3.281C128.683,61.277,129.328,61.963,130.617,62.238z"/>
	<path d="M138.087,64.99c-4.062,3.34-7.148,5.01-9.258,5.01c-0.234,0-0.352-0.121-0.352-0.362c0-0.361,0.195-0.592,0.586-0.693
		c0.723-0.175,1.836-0.565,3.34-1.169c1.406-0.76,4.98-3.529,10.723-8.306c5.449-4.523,8.242-6.785,8.379-6.785
		c0.449,0,0.893,0.195,1.332,0.585s0.66,0.809,0.66,1.257c0,1.423-1.113,3.929-3.34,7.516c-1.934,3.1-3.623,5.42-5.068,6.96
		c0.859,0,1.289,0.161,1.289,0.481c0,0.402-0.414,0.603-1.242,0.603c-0.217,0-0.537-0.04-0.961-0.117s-0.744-0.117-0.961-0.117
		c-0.157,0-0.392,0.029-0.703,0.088c-0.313,0.059-0.547,0.088-0.703,0.088C139.328,70.029,138.087,68.35,138.087,64.99z
		 M141.896,68.476l-0.82-2.331c-0.43-1.141-0.85-1.711-1.26-1.711c-0.43,0-0.645,0.334-0.645,1.003c0,0.669,0.195,1.357,0.586,2.065
		c0.449,0.807,0.977,1.209,1.583,1.209C141.574,68.711,141.76,68.633,141.896,68.476z M142.746,67.566
		c1.366-1.135,2.871-3.092,4.512-5.872c1.523-2.583,2.588-4.864,3.193-6.841l-10.489,8.525c0.722,0.118,1.329,0.688,1.817,1.71
		L142.746,67.566z"/>
	<path d="M163.283,63.291c7.07-6.289,11.796-9.434,14.18-9.434c1.055,0,1.582,0.557,1.582,1.67c0,1.191-1.676,3.457-5.025,6.797
		s-5.023,5.303-5.023,5.889c0,0.547,0.537,0.82,1.611,0.82c0.273,0,0.41,0.157,0.41,0.469c0,0.371-0.479,0.557-1.436,0.557
		c-1.699,0-2.549-0.713-2.549-2.139c0-1.641,1.308-3.798,3.926-6.475c3.203-3.281,4.932-5.146,5.186-5.596
		c0.019-0.234-0.099-0.352-0.352-0.352c-1.074,0-3.809,1.865-8.203,5.596c-3.281,2.773-5.918,5.156-7.91,7.148
		c-0.802,0.801-1.455,1.387-1.963,1.758c-0.293,0-0.572-0.186-0.836-0.557c-0.264-0.371-0.395-0.713-0.395-1.025
		c0-0.449,1.337-2.373,4.014-5.771l4.658-5.859c-1.895,1.777-4.259,3.779-7.09,6.006l-5.625,4.307c-2.832,1.934-5.01,2.9-6.533,2.9
		c-0.234,0-0.352-0.121-0.352-0.362c0-0.361,0.195-0.592,0.586-0.693c1.621-0.409,3.047-0.994,4.277-1.754
		c2.285-1.404,5.713-4.035,10.283-7.895l5.918-5c1.249-1.055,4.717-4.912,10.4-11.572c5.116-5.996,7.92-8.994,8.408-8.994
		c0.703,0,1.055,0.439,1.055,1.318c0,0.605-1.963,3.223-5.889,7.852L163.283,63.291z"/>
	<path d="M184.348,68.214c0,0.526,0.574,0.79,1.723,0.79c0.258,0,0.387,0.161,0.387,0.482c0,0.382-0.649,0.573-1.947,0.573
		c-1.477,0-2.213-0.703-2.213-2.109c0-1.641,2.178-5.068,6.533-10.283l-7.998,6.533C176.105,68.066,172.678,70,170.549,70
		c-0.234,0-0.352-0.13-0.352-0.392c0-0.362,0.195-0.583,0.586-0.663c1.23-0.233,2.354-0.633,3.369-1.199
		c1.27-0.702,3.965-2.68,8.086-5.936l8.965-7.515c0.391-0.136,0.918-0.205,1.582-0.205c0.663,0,0.996,0.38,0.996,1.14
		c0,0.819-1.572,3.027-4.717,6.623C185.919,65.452,184.348,67.572,184.348,68.214z M197.297,47.939
		c-0.938,0-1.406-0.479-1.406-1.436c0-0.801,0.479-1.523,1.436-2.168c0.859-0.586,1.718-0.879,2.578-0.879
		c1.015,0,1.523,0.557,1.523,1.67c0,0.801-0.509,1.484-1.523,2.051C199.025,47.686,198.156,47.939,197.297,47.939z"/>
</g>
<g>
	<g>
		<path fill="#040000" d="M34.692,31.81c-0.043,0.006-0.24,0.079-0.28,0.098c-0.042,0.013-0.236,0.09-0.271,0.116
			c-1.155,0.807,0.566,3.463,1.262,4.475c0.983,1.431,1.158,3.207,2.086,4.74c0.229,0.377,0.68,0.704,0.884,0.591
			c0.226-0.063,0.327-0.611,0.236-1.043c-0.373-1.753-1.467-3.159-1.738-4.867C36.68,34.711,36.101,31.626,34.692,31.81z"/>
		<path fill-rule="evenodd" clip-rule="evenodd" fill="#040000" d="M48.803,30.893c-0.008,0.285-0.276,0.504-0.564,0.437
			c-0.827-0.193-0.016-1.373,0.437-0.79C48.769,30.658,48.806,30.781,48.803,30.893z"/>
		<path fill-rule="evenodd" clip-rule="evenodd" fill="#040000" d="M51.429,32.833c-0.409,0.933-1.285-0.163-0.56-0.496
			C51.063,32.248,51.574,32.502,51.429,32.833z"/>
		<path fill-rule="evenodd" clip-rule="evenodd" fill="#040000" d="M51.578,35.132c0.661-0.384,1,0.631,0.352,0.751
			C51.651,35.935,51.235,35.332,51.578,35.132z"/>
		<path fill-rule="evenodd" clip-rule="evenodd" fill="#040000" d="M51.234,38.133c0.415,0.688-0.439,1.002-0.763,0.556
			C50.112,38.195,50.919,37.615,51.234,38.133z"/>
		<path fill-rule="evenodd" clip-rule="evenodd" fill="#040000" d="M49.627,41.14c-0.021,0.028-0.048,0.056-0.08,0.079
			c-0.252,0.188-0.726,0.06-0.847-0.349c-0.117-0.393,0.264-0.68,0.528-0.632C49.545,40.295,49.844,40.845,49.627,41.14z"/>
		<path fill-rule="evenodd" clip-rule="evenodd" fill="#040000" d="M44.032,23.996c0.202,0.606-0.358,1.096-0.815,0.968
			C42.907,24.321,43.572,23.647,44.032,23.996z"/>
		<path fill-rule="evenodd" clip-rule="evenodd" fill="#3B3028" d="M37.909,40.793c-0.005-0.016-0.011-0.031-0.013-0.046
			C37.9,40.762,37.906,40.778,37.909,40.793z"/>
		<path fill-rule="evenodd" clip-rule="evenodd" fill="#040000" d="M33.043,30.587c-0.54-0.85-1.118-1.687-1.763-2.452
			c-0.542-0.642-1.221-1.195-1.758-1.842c-0.256-0.308-1.075-0.992-1.024-1.398c0.02-0.159,0.917,0.79,0.966,0.852
			c0.602,0.756,1.217,1.512,1.834,2.247c0.64,0.759,1.223,1.561,1.754,2.401c0.345,0.546,0.981,1.377,1.083,2.078
			c-0.038-0.033-0.068-0.073-0.099-0.116C33.946,31.768,33.324,31.028,33.043,30.587z"/>
		<path fill-rule="evenodd" clip-rule="evenodd" fill="#040000" d="M34.845,30.093c-0.122-1.012-0.2-2.03-0.173-3.019
			c0.022-0.83,0.224-1.653,0.242-2.486c0.008-0.396,0.24-1.402-0.078-1.732c-0.125-0.128-0.242,1.148-0.242,1.229
			c0.003,0.961-0.009,1.928-0.034,2.876c-0.026,0.982,0.023,1.97,0.146,2.967c0.08,0.648,0.11,1.691,0.502,2.352
			c0.009-0.047,0.005-0.098,0.002-0.151C34.884,31.569,34.908,30.617,34.845,30.093z"/>
		<g>
			
				<linearGradient id="SVGID_1_" gradientUnits="userSpaceOnUse" x1="267.7188" y1="-116.6904" x2="287.1621" y2="-148.7612" gradientTransform="matrix(0.993 -0.1176 0.1176 0.993 -209.6438 191.7722)">
				<stop  offset="0" style="stop-color:#21449A"/>
				<stop  offset="0.0451" style="stop-color:#2452A3"/>
				<stop  offset="0.1065" style="stop-color:#2862AE"/>
				<stop  offset="0.1628" style="stop-color:#2A6BB5"/>
				<stop  offset="0.2088" style="stop-color:#2B6FB7"/>
				<stop  offset="0.6154" style="stop-color:#3CBEE9"/>
				<stop  offset="1" style="stop-color:#133D96"/>
			</linearGradient>
			<path fill-rule="evenodd" clip-rule="evenodd" fill="url(#SVGID_1_)" d="M55.933,48.084c-0.092-1.737-4.021-2.018-3.128-3.939
				c0.393-0.846,1.113-1.454,1.583-2.323c0.689-1.275,1.247-2.338,1.563-3.859c0.305-1.466,0.317-2.448-0.183-3.787
				c-0.212-0.566-0.269-1.394-0.295-2.122c-0.021-0.619-0.066-1.201-0.406-1.559c-1.599-1.687-3.999-1.805-6.074-1.954
				c0.141-0.495,1.036-0.742,1.308-0.902c0.647-0.381,1.27-0.839,1.826-1.444c1.005-1.097,1.583-2.522,1.72-4.014
				c0.065-0.714,0.004-1.333-0.032-2.028c-0.043-0.837,0.612-1.614,0.249-2.405c-0.427-0.927-0.604-1.898-0.656-2.922
				c-0.041-0.791-0.006-1.719-0.159-2.505c-0.346-1.784-0.89-4.752-3.181-5.661c-2.228-0.885-4.732,1.754-5.992,3.217
				c-1.615,1.873-2.689,4.095-3.918,6.175c-1.263,2.139-2.229,4.427-3.014,6.736c-0.642,1.888-1.133,3.896-1.294,5.904
				c-0.087,1.086-0.081,2.191,0.042,3.301c0.1,0.899,0.186,1.816,0.411,2.711c0.214,0.854,0.591,1.657,0.862,2.496
				c0.409,1.262,1.096,2.183,1.964,2.945c0.371,0.326,0.688,0.635,1.029,0.894c0.85,0.642,1.651,1.292,2.464,1.987
				c1.562,1.337,2.894,2.492,4.621,3.065c0.953,0.315,1.868,0.396,2.847,0.335c0.743-0.046,1.367,0.263,2.006,0.981
				c0.706,0.793,1.163,1.892,2.112,2.336C55.136,50.178,55.997,49.297,55.933,48.084z"/>
			<path fill="#040000" d="M55.515,47.147c-0.771-0.765-1.851-0.914-2.51-1.798c-0.729-0.978,0.265-1.775,0.747-2.425
				c0.701-0.945,1.314-2.25,1.792-3.441c0.427-1.067,0.855-2.981,0.676-4.126c-0.11-0.701-0.473-1.283-0.605-1.974
				c-0.138-0.724-0.004-1.523-0.174-2.23c-0.277-1.146-1.741-1.739-2.649-2.051c-1.222-0.42-2.493-0.519-3.739-0.609
				c0.11-0.385,1.012-0.655,1.284-0.814c0.648-0.38,1.284-0.857,1.84-1.461c1.008-1.095,1.56-2.537,1.701-4.028
				c0.067-0.715-0.033-1.357-0.069-2.052c-0.042-0.836,0.651-1.625,0.289-2.418c-0.753-1.644-0.606-3.48-0.804-5.324
				c-0.351-3.276-2.446-7.535-6.284-5.152c-3.636,2.258-4.932,5.53-6.853,8.768c-0.855,1.444-1.606,2.961-2.197,4.518
				c-0.602,1.585-1.19,3.171-1.604,4.751c-0.398,1.525-0.589,3.213-0.592,4.821c0,0.924,0.137,1.872,0.205,2.805
				c0.108,1.461,0.553,2.642,1.062,4.04c0.212,0.583,0.419,1.104,0.736,1.644c0.388,0.659,0.875,1.176,1.395,1.624
				c0.061,0.051,0.122,0.104,0.181,0.156c0.91,0.815,1.867,1.476,2.771,2.244c0.878,0.747,1.744,1.708,2.646,2.32
				c1.841,1.249,3.465,1.594,5.469,1.564c0.872-0.013,1.583,0.499,2.229,1.41c0.68,0.958,1.517,2.352,2.669,1.935
				C56.051,49.505,56.358,47.982,55.515,47.147z M55.687,36.526c-0.197,0.613-2.076-0.261-2.018-0.938
				C53.787,34.204,56.233,34.834,55.687,36.526z M48.222,42.229c-0.285-0.425-0.611-0.753-0.929-1.143
				c-0.443-0.544-0.896-1.04-1.354-1.556c-0.1-0.112-1.295-1.641-1.22-1.689c0.473-0.309,1.184-0.523,1.83-0.453
				c0.72,0.079,1.171,0.483,1.707,1.116c0.322,0.382,0.654,0.755,1.007,1.092c0.555,0.531,1.505,0.912,1.524,1.974
				c0.01,0.498-0.274,0.801-0.497,1.123c-0.081,0.116-0.178,0.289-0.287,0.452C49.391,44.064,48.693,42.934,48.222,42.229z
				 M48.955,44.985c-0.318-0.12-1.589-2.026-1.234-2.4c0.209-0.22,0.754,0.557,0.896,0.737
				C48.972,43.772,48.593,44.407,48.955,44.985z M44.78,36.421c-0.04-0.131-0.038-0.257,0.043-0.377
				c0.151-0.226,0.62-0.102,0.838-0.122c0.432-0.038,0.866-0.059,1.305-0.113c0.229-0.028,0.465-0.022,0.693-0.049
				c0.162-0.019,0.656-0.018,0.536,0.287c-0.051,0.134-0.274,0.291-0.368,0.384c-0.127,0.126-0.264,0.241-0.402,0.341
				c-0.28,0.204-0.771,0.18-1.081,0.253c-0.302,0.071-0.903,0.274-1.211,0.171C44.888,37.115,44.864,36.699,44.78,36.421z
				 M51.263,40.584c-0.117,0.01-0.239-0.011-0.363-0.067c-0.97-0.443-1.817-1.666-2.636-2.43c-0.061-0.058-0.86-0.776-0.784-0.886
				c0.44-0.633,1.179-0.897,1.858-0.667c0.648,0.34,1.357,0.456,2.041,0.703c0.318,0.115,0.687,0.246,0.96,0.488
				c0.434,0.385,0.179,1.477-0.04,1.929C52.076,40.12,51.69,40.546,51.263,40.584z M49.17,35.047
				c0.299-0.584,1.083-0.657,1.578-0.741c0.656-0.11,1.428-0.196,2.083,0.017c0.439,0.143,0.48,1.15,0.391,1.676
				c-0.003,0.019-0.008,0.039-0.012,0.057c-0.252,1.211-0.803,1.189-1.622,0.897c-0.559-0.201-1.115-0.4-1.667-0.599
				C49.234,36.106,48.643,36.078,49.17,35.047z M53.405,37.044c-0.07-0.681,0.545-0.433,0.841-0.259
				c0.297,0.176,1.152,0.732,0.586,1.192c-0.174,0.142-0.584,0.066-0.772-0.007c-0.003-0.001-0.006-0.003-0.01-0.005
				C53.715,37.831,53.45,37.474,53.405,37.044z M54.748,34.043c-0.379,0.28-1.019-0.105-1.289-0.362
				c-0.16-0.153-0.332-0.375-0.266-0.649c0.026-0.106,0.076-0.198,0.14-0.27c0.236-0.265,0.766-0.209,1.047-0.123
				C54.777,32.761,55.254,33.669,54.748,34.043z M53.903,30.658c0.597-0.086,0.95,0.433,0.87,1.083
				c-0.042,0.333-0.356,0.478-0.608,0.543c-0.313,0.082-0.624-0.038-0.921-0.07c-0.208-0.023-0.363-0.308-0.349-0.55
				C52.927,31.111,53.464,30.721,53.903,30.658z M52.461,32.616c0.023,0.33-0.061,0.68-0.288,0.992
				c-0.345,0.473-1.104,0.45-1.551,0.541c-0.45,0.09-0.894,0.243-1.332,0.312c-0.546,0.086-0.876-0.328-1.272-0.696
				c-0.214-0.201-0.531-0.274-0.296-0.605c0.294-0.417,0.694-0.518,1.075-0.778c0.195-0.133,0.412-0.26,0.645-0.38
				c0.485-0.248,0.993-0.45,1.514-0.621C51.703,31.134,52.403,31.814,52.461,32.616z M51.361,29.863
				c0.393-0.238,0.875-0.188,1.147,0.202c0.052,0.075,0.057,0.136,0.033,0.183c-0.061,0.119-0.296,0.168-0.42,0.202
				c-0.259,0.072-0.532,0.077-0.77-0.026c-0.087-0.039-0.361-0.155-0.32-0.307C51.058,30.015,51.288,29.908,51.361,29.863z
				 M49.956,29.024c0.064-0.089,0.201-0.135,0.341-0.14c0.254-0.01,0.497,0.099,0.616,0.363c0.168,0.372-0.437,0.437-0.623,0.366
				c-0.121-0.045-0.236-0.134-0.309-0.253C49.893,29.214,49.898,29.103,49.956,29.024z M48.881,29.272
				c0.489-0.02,0.452,0.223,0.717,0.63c0.061,0.095,0.147,0.201,0.229,0.315c0.155,0.217,0.292,0.466,0.218,0.731
				c-0.091,0.331-0.569,0.617-0.794,0.784c-0.935,0.691-2.184,1.201-3.23,1.152c-0.441-0.021-1.098,0.239-1.485,0.083
				c0.701-1.073,1.854-2.145,2.806-2.896C47.799,29.71,48.3,29.294,48.881,29.272z M47.008,34.302
				c-0.521,0.233-1.204,0.231-1.746,0.104c-0.168-0.17-0.329-0.947-0.054-1.035c0.527-0.084,1.269-0.157,1.8,0.035
				C47.44,33.563,47.388,34.132,47.008,34.302z M47.665,28.755c-0.16,0.22-0.494,0.35-0.724,0.365
				c-0.144,0.01-0.322-0.081-0.276-0.263c0.005-0.018,0.011-0.037,0.021-0.057c0.086-0.184,0.453-0.177,0.595-0.262
				c0.106-0.063,0.34-0.352,0.465-0.212C47.847,28.439,47.732,28.662,47.665,28.755z M50.686,27.063
				c-0.107,0.118-0.294,0.216-0.382,0.267c-0.275,0.158-0.738,0.518-0.995,0.229c-0.135-0.152,0.145-0.307,0.265-0.382
				c0.19-0.119,0.362-0.285,0.556-0.4c0.16-0.094,0.654-0.23,0.633,0.126C50.76,26.96,50.73,27.013,50.686,27.063z M49.475,24.248
				c-0.278,0.071-1.965,0.538-1.391-0.277c0.391-0.554,1.188-0.696,1.743-0.949c0.412-0.188,0.344,0.329,0.698,0.536
				c0.284,0.167,0.632,0.157,0.959,0.124c-0.042,0.149-0.031,0.29,0.031,0.423C50.992,24.539,50.069,24.096,49.475,24.248z
				 M52.697,24.909c-0.156,0.41-0.624,0.545-0.958,0.602c-0.238,0.041-1.278,0.341-0.836-0.309
				C51.084,24.934,52.926,24.313,52.697,24.909z M53.497,22.537c0.103,1.275-1.909,1.205-2.064,0.643
				C51.171,22.234,53.133,22.223,53.497,22.537z M53.568,20.583c-0.123,1.117-2.604,1.611-2.021,0.011
				c-0.566,0.247-0.849,0.508-1.308,0.921c-0.071,0.161-0.163,0.294-0.081,0.539c0.147,0.439-0.344,0.616-0.752,0.827
				c-0.157,0.081-1.917,0.54-1.525-0.125c0.334-0.568,1.409-1.028,1.91-1.396c0.222-0.245,0.561-0.743,0.089-0.787
				c-0.257-0.024-0.534,0.092-0.782,0.173c-0.368,0.12-0.943,0.431-1.317,0.348c-0.034-1.296,1.721-1.771,2.496-2.313
				c0.121,0.516-0.358,0.946,0.375,0.943c0.266-0.001,0.535-0.063,0.803-0.054c0.18,0.205,0.052,0.497,0.123,0.737
				C51.987,20.345,53.665,19.701,53.568,20.583z M45.411,24.844c-0.303,0.309-0.752,0.398-1.097,0.606
				c-0.874,0.525-1.742,0.982-2.631,1.363c0.206-1.063,0.584-2.073,1.106-2.993c0.473-0.836,1.564-1.78,2.541-1.612
				c0.373,0.064,0.695,0.168,1.084,0.09c0.319-0.063,0.619-0.313,0.945-0.335c0.456-0.029-0.001,0.643-0.134,0.775
				c-0.411,0.407-0.966,0.509-1.31,1.009C45.688,24.077,45.689,24.561,45.411,24.844z M38.638,27.515
				c-0.015,0.094-0.037,0.186-0.062,0.277c-0.05,0.182-0.122,0.348-0.185,0.522c-0.124,0.347-0.182,0.75-0.275,1.112
				c-0.037,0.141-0.085,0.276-0.115,0.419c-0.08,0.387-0.181,0.76-0.287,1.131c-0.083,0.291-0.192,0.555-0.265,0.85
				c-0.077,0.312-0.136,0.631-0.204,0.946c-0.009,0.04-0.018,0.081-0.029,0.118c0.03-0.167,0.043-0.341,0.063-0.514
				c0.047-0.424,0.111-0.85,0.191-1.271c0.144-0.757,0.339-1.504,0.565-2.221c0.072-0.228,0.143-0.456,0.205-0.688
				c0.093-0.346,0.426-0.961,0.426-0.961S38.647,27.457,38.638,27.515z M39.348,26.939c-0.201,1.176-0.826,2.101-1.249,3.114
				C38.448,28.997,38.448,27.729,39.348,26.939z M41.348,22.831c-0.058-0.185-0.105-0.4-0.256-0.521
				c-0.054-0.042-0.344-0.149-0.381-0.039c0.032-0.098,0.061-0.192,0.089-0.266c0.097-0.256,0.189-0.517,0.276-0.78
				c0.142-0.429,0.271-0.866,0.385-1.309c0.085,0.066,0.18,0.12,0.283,0.157c0.32,0.115,0.638-0.035,0.958-0.048
				c-0.097,0.096-0.158,0.283-0.23,0.406c-0.133,0.227-0.234,0.449-0.327,0.696c-0.118,0.311-0.278,0.591-0.407,0.893
				c-0.12,0.279-0.225,0.576-0.385,0.827C41.35,22.842,41.349,22.836,41.348,22.831z M40.851,18.679c0,0,0.149,0.793,0.443,1.077
				c-0.125,0.49-0.192,1.051-0.351,1.523c-0.091,0.272-0.19,0.542-0.293,0.808c-0.019,0.047-0.085,0.173-0.131,0.299
				c-0.199,0.154-0.385,0.398-0.509,0.625c-0.218,0.397-0.392,0.933-0.815,1.079c-0.146,0.05-0.596,0.118-0.556-0.194
				c0.072-0.558,0.336-1.105,0.538-1.609c0.253-0.634,0.524-1.263,0.81-1.889C40.181,19.97,40.851,18.679,40.851,18.679z
				 M43.771,14.821c0.057-0.129,0.182-0.305,0.353-0.501c0.895-1.028,3.104-2.649,3.185-1c0.042,0.889-1.881,1.995-2.384,2.545
				c-0.44,0.482-0.94,0.872-1.355,1.357c-0.476,0.556-1.207,1.383-1.968,1.139c-0.11-0.29,0-0.597,0.183-0.891
				c0.231-0.37,0.58-0.718,0.741-0.984C42.858,15.932,43.531,15.374,43.771,14.821z M47.981,14.659
				c0.114,0.664,1.261-0.4,1.53-0.492c-0.038,0.437,0.511,0.313,0.23,0.699c-0.169,0.233-0.458,0.362-0.695,0.479
				c-0.497,0.28-0.966,0.574-1.419,0.922c-1.253,0.96-2.369,2.069-3.641,2.849c-0.325-0.693-0.555-1.157-0.079-1.833
				c0.492-0.695,1.162-1.233,1.763-1.814c1.125-1.084,2.381-2.097,3.814-2.894c0.079,0.874,2.628-0.399,0.699,1.031
				c-0.168-0.833-1.445-0.148-1.802,0.183C48.15,14.003,47.923,14.321,47.981,14.659z M41.871,22.098
				c0.033-0.074,0.066-0.15,0.097-0.228c0.151-0.381,0.298-0.797,0.504-1.149c0.122-0.209,0.251-0.493,0.433-0.649
				c0.163,0.064,0.278,0.242,0.315,0.67c0.092,1.082-0.353,2.314-0.906,3.138c-0.201,0.298-0.418,0.265-0.594-0.034
				c-0.204-0.346-0.346-0.622-0.179-1.026C41.644,22.572,41.762,22.341,41.871,22.098z M45.536,18.466
				c0.787-0.244,1.577,0.003,2.323-0.574c0.101,0.089,0.167,0.203,0.198,0.344c0.14,0.31,0.552-0.052,0.74-0.17
				c0.25-0.156,0.945-0.591,1.027-0.917c0.068-0.27-0.306-0.274-0.489-0.241c-0.178,0.032-2.082,1.165-2.081,0.625
				c0.004-1.057,1.945-2.285,2.837-2.377c0.035,0.509-0.326,0.822,0.371,0.771c0.24-0.019,0.76-0.017,0.775,0.322
				c0.017,0.407-0.614,0.718-0.851,0.945c-0.59,0.567-0.207,0.576-0.002,1.099c-0.686,0.619-1.696,1.235-2.513,1.447
				c-0.245,0.063-0.57,0.109-0.583-0.28c-0.441,0.09-0.796,0.355-1.072,0.742c-0.462,0.649-0.761,1.167-1.374,1.625
				c-0.031,0.022-1.512,0.849-1.509,0.746C43.365,21.031,43.994,18.946,45.536,18.466z M53.051,18
				c0.318,0.022,0.59,0.438,0.464,0.779c-0.126,0.341-0.47,0.485-0.766,0.528c-0.169,0.024-0.34,0.024-0.509,0.053
				c-0.274,0.046-0.556,0.239-0.63-0.162c-0.043-0.229,0.055-0.587,0.233-0.758C52.168,18.133,52.646,17.973,53.051,18z
				 M53.144,16.649c-0.506,0.59-1.546,1.207-1.946,0.41C51.333,16.234,52.924,15.786,53.144,16.649z M53.055,14.923
				c-0.349,0.513-1.295,0.656-1.737,0.583C51.034,14.685,52.949,13.732,53.055,14.923z M52.53,13.291
				c-0.335,0.361-0.851,0.597-1.306,0.575c-0.137-0.238-0.11-0.506,0.108-0.707c0.209-0.194,0.497-0.295,0.763-0.345
				C52.623,12.717,52.317,12.955,52.53,13.291z M52.626,11.737c-0.205,0.39-1.553,0.816-1.321,0.077
				C51.453,11.348,52.571,11.094,52.626,11.737z M51.839,10.294c0.011,0.265-0.539,0.762-1.038,0.813
				C50.439,10.59,51.521,10.106,51.839,10.294z M51.752,9.344c-0.252,0.225-0.894,0.56-1.226,0.539
				C50.274,9.335,51.584,8.796,51.752,9.344z M50.657,8.382c-0.038,0.327-0.566,0.732-0.972,0.699
				C49.687,8.641,50.263,8.507,50.657,8.382z M50.118,7.715c-0.169,0.114-0.667,0.666-0.833,0.365
				C49.454,7.918,49.872,7.646,50.118,7.715z M48.152,10.87c0.537-0.352,1.218-0.073,1.909-0.335
				c-0.057,0.518-0.606,0.754-0.843,1.166c-0.271,0.47,0.196,0.388-0.343,0.797c-0.407,0.31-0.823,0.605-1.305,0.731
				c0.446-0.632,1.071-1.104,1.531-1.735c-0.35-0.435-1.155,0.136-1.556,0.229C47.365,11.269,47.861,11.061,48.152,10.87z
				 M48.391,9.375c-0.163,0.609-0.443,1.221-0.904,1.647c-0.252,0.234-0.555,0.401-0.878,0.477
				c-0.172-0.259,0.143-0.389,0.019-0.638c-0.413,0.178-0.617,0.267-1.027,0.443C45.872,10.083,47.372,9.616,48.391,9.375z
				 M46.438,9.051c0.021,0.563-0.282,1.252-1.044,1.265C45.399,9.743,45.723,9.315,46.438,9.051z M44.875,12.513
				c-0.024,0.69-0.379,1.249-0.803,1.755c-0.377,0.448-0.812,0.856-1.137,1.279c-0.294,0.384-0.51,0.84-0.809,1.21
				c-0.136,0.169-0.28,0.463-0.437,0.69c-0.096,0.139-0.197,0.254-0.306,0.297c0.246-1.11,0.742-2.129,1.317-3.083
				C43.19,13.848,43.797,12.448,44.875,12.513z M42.771,14.215c-0.287,0.057,0.459-1.392,0.667-1.536
				C43.661,13.203,42.96,13.804,42.771,14.215z M44.976,9.683c-0.005,0.473-0.342,1.038-0.743,1.131
				C44.345,10.376,44.583,9.997,44.976,9.683z M41.972,13.967c0.106-0.192,0.663-0.676,0.708-0.868
				c-0.144,0.911-0.362,1.841-0.76,2.656c-0.412,0.844-0.714,2.064-1.304,2.747c-0.19-0.302,0.089-1.133,0.143-1.458
				c0.102-0.632,0.311-1.238,0.568-1.812C41.521,14.799,41.743,14.382,41.972,13.967z M40.85,15.626
				c0.132,0.361-0.165,0.849-0.235,1.188c-0.127,0.614-0.154,1.242-0.307,1.849c-0.153,0.61-0.367,1.197-0.622,1.753
				c-0.047,0.105-0.561,1.378-0.669,0.726C38.702,19.254,40.13,17.199,40.85,15.626z M37.771,23.635
				c-0.109-0.489,0.092-1.013,0.232-1.446c0.164-0.506,0.385-0.987,0.66-1.427c0.139,0.61,0.218,1.25,0.069,1.847
				c-0.08,0.32-0.229,0.601-0.328,0.907C38.271,23.927,38.046,23.454,37.771,23.635z M36.432,31.985
				c-0.136-1.273,0.137-2.785,0.298-4.022c0.012-0.093,0.416-2.048,0.433-2.036c0.531,0.38,0.216,0.896,0.091,1.464
				c-0.161,0.73-0.327,1.457-0.431,2.201c-0.158,1.137-0.221,2.309-0.258,3.464C36.434,32.737,36.467,32.314,36.432,31.985z
				 M36.984,32.628c0.102-1.777,0.449-3.56,0.773-5.319c0.041-0.229,0.064-0.51,0.153-0.718c0.045-0.104,0.294,0.196,0.314,0.231
				c0.146,0.25,0.079,0.588,0.015,0.833c-0.315,1.215-0.671,2.336-0.882,3.565c-0.083,0.365-0.134,0.744-0.177,1.123
				c-0.021,0.196-0.04,0.392-0.074,0.582c-0.024,0.135-0.043,0.266-0.04,0.407c-0.056,0.148-0.11,0.293-0.153,0.45
				C36.866,33.379,36.961,33.015,36.984,32.628z M37.491,32.547c0.404-2.003,1.562-3.621,2.312-5.539
				c0.493-0.233,0.852-0.696,1.314-1.01c0.136,0.824-0.851,1.922-1.216,2.477C39.017,29.819,38.176,31.142,37.491,32.547z
				 M38.103,33.42c0.397-0.326,0.794-0.579,1.169-0.972c0.861-0.903,1.69-1.915,2.664-2.781c0.267-0.237,0.543-0.463,0.829-0.678
				c0.208,0.057,0.422,0.061,0.631,0.036c0.479-0.058,0.947-0.263,1.376-0.536c0.403-0.256,0.803-0.587,1.104-1.019
				c0.406-0.584-0.2-0.433-0.059-0.784c-0.52,0.151-1.035,0.365-1.547,0.588c-0.362,0.157-0.482-0.14-0.776-0.321
				c-0.436-0.268-0.92,0.313-1.062,0.731c-0.354,1.043-0.58,1.558-1.334,2.225c-0.41,0.363-0.829,0.705-1.185,1.125
				c-0.381,0.452-0.674,1.286-1.295,1.282c0.86-1.281,1.661-2.684,2.466-4.151c0.417-0.76,0.921-0.979,1.619-1.37
				c0.571-0.32,1.077-0.764,1.659-1.101c0.542-0.314,1.133-0.609,1.754-0.634c0.661-0.026,1.309,0.179,1.983,0.103
				c0.123,0.36,0.245,0.493,0.568,0.442c0.377-0.058,0.582-0.001,0.487,0.471c-0.158,0.781-0.872,1.231-1.472,1.369
				c-0.412,0.378-1.222,0.743-1.704,0.916c-0.722,0.258-1.58,0.833-2.224,1.263c-2.263,1.507-6.292,4.362-6.292,4.362
				S37.888,33.596,38.103,33.42z M39.577,33.732c0.316-0.261,0.674-0.597,0.978-0.888c0.266-0.255,0.531-0.47,0.816-0.701
				c0.432-0.351,0.868-0.68,1.306-1.054c0.535-0.457,1.108-0.83,1.691-1.235c0.258-0.181,0.528-0.401,0.828-0.484
				c0.191-0.053,0.433-0.033,0.534,0.064c0.084,0.082,0.068,0.22-0.157,0.414c-0.489,0.422-1.061,0.631-1.596,0.898
				c-0.472,0.236-0.888,0.562-1.305,0.881c-0.661,0.504-1.412,0.797-2.002,1.377c-0.184,0.181-0.355,0.364-0.55,0.521
				c-0.406,0.328-0.769,0.591-1.217,0.809c-0.147,0.073-0.613,0.175-0.776,0.113C38.555,34.255,39.154,34.081,39.577,33.732z
				 M38.085,35.29c0.069-0.137,0.191-0.229,0.302-0.308c0.292-0.203,0.635-0.282,0.929-0.484c1.166-0.8,2.262-2.048,3.614-2.671
				c0.871-0.188,1.707-0.668,2.434-1.342c0.5-0.354,1.091-0.494,1.629-0.807c-0.689,0.771-1.44,1.361-2.08,2.139
				c-0.886,1.077-1.647,1.694-2.826,2.02c-0.479,0.133-0.906,0.408-1.34,0.635c-0.43,0.224-0.905,0.324-1.343,0.506
				c-0.459,0.191-0.893,0.449-1.352,0.619C37.951,35.635,38.07,35.318,38.085,35.29z M37.854,36.204
				c-0.063-0.136,0.271-0.462,0.362-0.497c0.979-0.374,1.97-0.879,3.021-1.178c0.427-0.214,0.847-0.369,1.29-0.579
				c0.438-0.209,0.934-0.534,1.375-0.6c0.245-0.037,0.608-0.18,0.839,0.054c0.052,0.457,0.175,0.986-0.21,1.112
				c-0.653,0.211-1.276,0.479-1.921,0.661c-0.058,0.017-2.095,0.608-2.083,0.626c0.095,0.149,0.509-0.006,0.608-0.029
				c0.124-0.031,0.247-0.075,0.371-0.108c0.204-0.055,0.408-0.103,0.615-0.148c0.732-0.164,1.45-0.404,2.188-0.65
				c0.314-0.103,0.658-0.2,0.99-0.231c0.472-0.045,0.95,0.147,1.417-0.003c0.382-0.123,0.813-0.346,1.217-0.17
				c0.324,0.142,0.568,0.565,0.464,1c-0.453,0.035-0.896,0.126-1.339,0.164c-0.03,0.001-0.061,0.005-0.089,0.007
				c-0.703,0.055-1.415-0.01-2.115,0.017c-0.789,0.031-1.552,0.325-2.317,0.423c-0.175,0.022-1.962,0.029-1.917,0.158
				c0.721-0.033,1.479,0.127,2.221,0.064c0.355-0.047,0.986-0.126,1.349-0.111c0.397,0.015,0.386,0.957,0.688,1.213
				c-0.335,0.063-0.67,0.089-1.018,0.042c-1.214-0.167-2.411-0.49-3.626-0.666c-0.256-0.037-0.511-0.128-0.768-0.197
				c-0.203-0.055-0.405-0.145-0.61-0.196c-0.191-0.046-0.38-0.074-0.572-0.088C38.207,36.287,37.908,36.319,37.854,36.204z
				 M41.676,42.018c-0.393-0.333-1.498-1.055-2.455-1.894c-0.584-0.512-1.09-1.118-1.31-1.673c-0.123-0.31-0.197-0.564-0.091-0.862
				c0.547,0.611,0.904,1.441,1.454,2.032c0.602,0.647,1.249,1.182,1.894,1.683c1.299,1.008,2.649,1.906,3.75,3.337
				C43.795,43.983,42.747,42.92,41.676,42.018z M46.956,45.715c0,0,0,0-0.001-0.001c-0.27-0.071-0.545-0.119-0.805-0.281
				c-0.32-0.2-0.601-0.55-0.875-0.865c-0.795-0.916-1.601-1.69-2.496-2.391c-1.468-1.147-3.42-2.275-4.376-4.405
				c0.471,0.277,0.911,0.651,1.348,1.011c0.392,0.323,0.794,0.571,1.188,0.873c0.629,0.482,1.287,0.952,1.927,1.361
				c0.406,0.258,0.805,0.542,1.194,0.848c0.665,0.521,1.305,1.107,1.913,1.758c0.311,0.333,0.611,0.682,0.903,1.048
				c0.257,0.322,0.635,0.716,0.81,1.126C47.503,45.917,47.168,45.769,46.956,45.715z M48.748,46.069
				c-0.1-0.044-0.186-0.119-0.27-0.202c-0.037-0.037-0.074-0.074-0.111-0.112c-0.531-0.549-0.97-1.233-1.5-1.779
				c-1.181-1.218-2.359-2.306-3.654-3.214c-0.996-0.7-2.1-1.377-3.141-2.164c-0.618-0.467-1.182-1.129-1.856-1.453
				c-0.066-0.033-0.185-0.038-0.239-0.106c-0.087-0.112-0.038-0.222,0.053-0.208c0.117,0.018,0.231,0.03,0.347,0.024
				c0.238-0.013,0.477-0.069,0.722-0.026c0.585,0.103,1.169,0.256,1.749,0.407c0.969,0.25,2.011,0.175,2.955,0.541
				c0.476,0.186,0.613,0.303,1.03,0.667c0.301,0.264,0.489,0.648,0.753,0.939c0.58,0.639,1.074,1.287,1.473,2.153
				c0.076,0.166,0.36,0.662,0.326,0.865c-0.085,0.5-0.614-0.058-0.736-0.179c-0.926-0.92-1.783-2.02-2.813-2.719
				c-0.734-0.498-1.622-0.946-2.411-1.187c-0.299-0.091-0.578-0.194-0.873-0.349c-0.236-0.125-0.466-0.252-0.707-0.365
				c-0.176-0.082-0.689-0.173-0.689-0.173s0.323,0.263,0.369,0.291c0.136,0.084,0.276,0.146,0.416,0.209
				c0.278,0.127,0.537,0.333,0.811,0.462c0.202,0.094,0.395,0.188,0.592,0.291c0.136,0.07,0.271,0.149,0.407,0.212
				c1.172,0.546,2.319,1.231,3.371,2.165c0.989,0.879,1.726,2.066,2.631,3.055c0.306,0.334,0.643,0.582,0.919,0.989
				c0.183,0.269,0.347,0.562,0.497,0.863C49.246,46.119,48.79,46.088,48.748,46.069z M50.158,45.938
				c-0.466-0.026-1.283-1.406-0.482-1.285C50.083,44.715,50.901,45.979,50.158,45.938z M50.509,43.596
				c0.132-0.993,1.647,0.436,1.389,1.232C51.601,45.749,50.406,44.371,50.509,43.596z M51.183,42.203
				c0.084-1.025,2.051,0.404,1.682,1.293C52.5,44.371,51.122,42.941,51.183,42.203z M52.413,40.28
				c0.69-0.173,1.328,1.559,0.85,1.611C52.717,41.951,51.653,40.471,52.413,40.28z M52.797,39.066
				c0.334-1.111,2.343,0.114,1.979,0.967C54.416,40.881,52.521,39.988,52.797,39.066z"/>
		</g>
		<g>
			
				<linearGradient id="SVGID_2_" gradientUnits="userSpaceOnUse" x1="-323.0425" y1="515.4063" x2="-312.5273" y2="498.0621" gradientTransform="matrix(0.2271 0.9739 0.9739 -0.2271 -398.0562 461.4582)">
				<stop  offset="0" style="stop-color:#21449A"/>
				<stop  offset="0.0451" style="stop-color:#2452A3"/>
				<stop  offset="0.1065" style="stop-color:#2862AE"/>
				<stop  offset="0.1628" style="stop-color:#2A6BB5"/>
				<stop  offset="0.2088" style="stop-color:#2B6FB7"/>
				<stop  offset="0.6319" style="stop-color:#3CBEE9"/>
				<stop  offset="1" style="stop-color:#133D96"/>
			</linearGradient>
			<path fill-rule="evenodd" clip-rule="evenodd" fill="url(#SVGID_2_)" d="M30.429,58.708c-1.098-1.344,1.343-4.304-0.558-5.11
				c-0.836-0.354-1.731-0.305-2.64-0.627c-1.332-0.473-2.437-0.883-3.701-1.81c-1.22-0.894-1.917-1.629-2.521-2.996
				c-0.256-0.577-0.8-1.245-1.298-1.816c-0.423-0.484-0.808-0.96-0.833-1.47c-0.118-2.401,1.431-4.161,2.755-5.703
				c-0.448-0.278-1.239,0.152-1.54,0.219c-0.716,0.161-1.469,0.244-2.281,0.169c-1.473-0.134-2.894-0.813-4.065-1.845
				c-0.561-0.493-0.966-1.005-1.444-1.553c-0.576-0.66-1.594-0.788-1.917-1.633c-0.379-0.99-0.96-1.837-1.667-2.632
				c-0.546-0.614-1.244-1.277-1.709-1.961c-1.055-1.552-2.826-4.078-1.84-6.315c0.958-2.174,4.658-1.974,6.61-1.749
				c2.501,0.288,4.857,1.226,7.222,1.964c2.433,0.759,4.758,1.833,6.957,3.035c1.8,0.983,3.571,2.15,5.094,3.525
				c0.824,0.744,1.59,1.558,2.272,2.454c0.553,0.728,1.126,1.458,1.583,2.265c0.438,0.77,0.72,1.611,1.102,2.409
				c0.573,1.198,0.706,2.341,0.602,3.502c-0.043,0.495-0.06,0.942-0.128,1.369c-0.167,1.064-0.294,2.101-0.396,3.183
				c-0.193,2.083-0.34,3.881-1.138,5.531c-0.439,0.909-1.009,1.621-1.71,2.268c-0.533,0.491-0.747,1.16-0.694,2.142
				c0.058,1.083,0.485,2.215,0.145,3.205C32.354,59.693,31.195,59.646,30.429,58.708z"/>
			<path fill="#040000" d="M32.134,59.437c1.048-0.499,0.683-2.109,0.499-3.295c-0.176-1.128-0.041-2.009,0.557-2.616
				c1.373-1.396,2.254-2.811,2.691-5.036c0.214-1.092,0.169-2.407,0.284-3.575c0.117-1.196,0.354-2.347,0.446-3.579
				c0.006-0.081,0.014-0.161,0.022-0.241c0.07-0.686,0.066-1.402-0.106-2.149c-0.141-0.611-0.353-1.132-0.601-1.702
				c-0.595-1.365-1.086-2.528-2.024-3.671c-0.598-0.729-1.161-1.517-1.808-2.197c-1.124-1.181-2.448-2.303-3.811-3.171
				c-1.413-0.901-2.957-1.694-4.516-2.48c-1.53-0.771-3.147-1.41-4.793-1.92c-3.689-1.145-6.961-2.716-11.195-1.863
				c-4.465,0.899-2.886,5.43-0.752,8.081c1.202,1.492,2.639,2.756,3.315,4.51c0.326,0.846,1.374,0.956,1.951,1.615
				c0.479,0.548,0.878,1.102,1.441,1.596c1.172,1.03,2.584,1.736,4.059,1.868c0.813,0.072,1.589-0.004,2.304-0.165
				c0.301-0.068,1.111-0.485,1.459-0.268c-0.793,0.926-1.594,1.883-2.127,3.051c-0.397,0.871-0.963,2.346-0.336,3.411
				c0.387,0.657,1.042,1.171,1.46,1.818c0.398,0.617,0.563,1.312,0.98,1.919c0.682,0.995,2.298,2.144,3.319,2.648
				c1.14,0.563,2.444,1.111,3.556,1.327c0.767,0.148,1.973,0.045,2.143,1.286c0.153,1.119-0.468,1.985-0.472,3.087
				C30.075,58.929,31.293,59.837,32.134,59.437z M23.408,47.768c0.511,0.473-0.142,2.448-0.701,2.123
				C21.161,48.992,22.362,46.802,23.408,47.768z M31.078,50.879c-0.184-0.044-0.368-0.106-0.5-0.136
				c-0.369-0.084-0.769-0.109-1.102-0.488c-0.712-0.808-0.33-1.763-0.317-2.55c0.008-0.501-0.022-1.012-0.064-1.525
				c-0.07-0.848-0.04-1.467,0.402-2.026c0.396-0.503,1.041-0.835,1.578-0.938c0.086-0.016,0.308,1.956,0.316,2.11
				c0.039,0.708,0.061,1.392,0.129,2.109c0.049,0.515,0.052,0.989,0.147,1.506C31.825,49.797,32.117,51.134,31.078,50.879z
				 M32.139,50.034c-0.025-0.233-0.181-1.198,0.113-1.18c0.497,0.029,0.916,2.34,0.781,2.654
				C32.889,50.825,32.204,50.62,32.139,50.034z M30.348,43.023c-0.142,0.292-0.702,0.56-0.958,0.716
				c-0.265,0.162-0.586,0.521-0.92,0.563c-0.165,0.02-0.336,0.028-0.51,0.023c-0.13-0.004-0.393,0.033-0.521-0.032
				c-0.294-0.148,0.045-0.493,0.17-0.591c0.175-0.137,0.333-0.307,0.511-0.444c0.338-0.263,0.654-0.549,0.98-0.82
				c0.165-0.138,0.404-0.555,0.666-0.491c0.139,0.034,0.228,0.129,0.291,0.254C30.19,42.465,30.46,42.793,30.348,43.023z
				 M27.147,49.881c-0.458-0.188-1.386-0.833-1.359-1.427c0.016-0.375,0.176-0.733,0.311-1.042c0.291-0.665,0.693-1.245,0.898-1.955
				c0.303-0.647,0.992-0.963,1.731-0.794c0.128,0.028,0.075,1.126,0.073,1.212c-0.032,1.143,0.23,2.658-0.121,3.672
				c-0.045,0.129-0.113,0.229-0.2,0.305C28.168,50.124,27.617,50.074,27.147,49.881z M26.477,45.727
				c-0.237,0.535-0.477,1.074-0.717,1.618c-0.35,0.793-0.732,1.213-1.719,0.456c-0.014-0.011-0.028-0.024-0.044-0.036
				c-0.427-0.334-1.106-1.127-0.91-1.543c0.293-0.618,0.881-1.09,1.403-1.464c0.395-0.283,0.981-0.771,1.593-0.539
				C27.158,44.629,26.772,45.061,26.477,45.727z M24.802,49.832c-0.001,0.004-0.002,0.008-0.003,0.011
				c-0.077,0.18-0.298,0.531-0.513,0.546c-0.697,0.048-0.509-0.971-0.432-1.312c0.077-0.339,0.317-0.958,0.743-0.393
				C24.865,49.04,24.932,49.489,24.802,49.832z M20.859,46.029c0.129-0.263,0.445-0.676,0.793-0.64
				c0.095,0.01,0.194,0.045,0.286,0.108c0.237,0.16,0.276,0.452,0.275,0.679c-0.001,0.382-0.164,1.123-0.615,1.175
				C20.993,47.42,20.678,46.399,20.859,46.029z M21.174,44.248c0.181,0.175,0.277,0.499,0.151,0.663
				c-0.178,0.232-0.303,0.541-0.572,0.697c-0.215,0.126-0.53,0.236-0.793,0.012c-0.514-0.439-0.646-1.081-0.181-1.432
				C20.122,43.928,20.763,43.851,21.174,44.248z M22.29,42.683c0.477-0.232,0.966-0.431,1.472-0.579
				c0.244-0.071,0.481-0.125,0.708-0.16c0.444-0.067,0.791-0.267,1.285-0.156c0.394,0.088,0.226,0.362,0.218,0.662
				c-0.014,0.552,0.047,1.091-0.385,1.406c-0.347,0.253-0.756,0.447-1.125,0.691c-0.368,0.243-0.867,0.792-1.434,0.673
				c-0.373-0.079-0.674-0.285-0.892-0.553C21.612,44.02,21.608,43.015,22.29,42.683z M21.349,41.777
				c0.136,0.088,0.032,0.365-0.002,0.456c-0.089,0.244-0.279,0.429-0.506,0.555c-0.108,0.061-0.302,0.188-0.427,0.139
				c-0.05-0.02-0.091-0.068-0.108-0.161c-0.093-0.483,0.2-0.856,0.639-0.95C21.026,41.798,21.258,41.718,21.349,41.777z
				 M21.531,40.477c0.036,0.142,0.018,0.289-0.032,0.406c-0.078,0.182-0.535,0.551-0.684,0.154
				c-0.107-0.286-0.018-0.535,0.162-0.703c0.1-0.094,0.226-0.154,0.336-0.131C21.407,40.222,21.489,40.305,21.531,40.477z
				 M23.851,39.194c1.187-0.087,2.745-0.073,3.983,0.25c-0.163,0.385-0.802,0.642-1.094,0.961c-0.691,0.757-1.908,1.239-3.035,1.363
				c-0.272,0.03-0.799,0.144-1.095-0.043c-0.237-0.15-0.319-0.436-0.366-0.707c-0.024-0.142-0.041-0.282-0.065-0.396
				c-0.107-0.491-0.301-0.651,0.049-0.974C22.643,39.266,23.281,39.235,23.851,39.194z M26.42,41.479
				c0.232-0.511,0.796-0.969,1.223-1.268c0.253-0.124,0.684,0.57,0.685,0.813c-0.289,0.47-0.761,0.944-1.283,1.129
				C26.663,42.29,26.232,41.896,26.42,41.479z M22.34,38.154c-0.013-0.191,0.355-0.136,0.473-0.16
				c0.158-0.034,0.415-0.292,0.599-0.211c0.02,0.009,0.04,0.019,0.055,0.03c0.155,0.106,0.1,0.295-0.007,0.386
				c-0.171,0.146-0.493,0.279-0.759,0.223C22.588,38.397,22.351,38.308,22.34,38.154z M19.251,39.155
				c-0.265-0.256,0.169-0.494,0.345-0.532c0.218-0.048,0.455-0.043,0.669-0.084c0.135-0.025,0.438-0.101,0.453,0.108
				c0.028,0.396-0.543,0.445-0.847,0.513c-0.099,0.022-0.295,0.076-0.453,0.061C19.353,39.213,19.293,39.196,19.251,39.155z
				 M16.73,37.552c-0.051-0.142-0.145-0.255-0.281-0.34c0.25-0.2,0.498-0.436,0.574-0.756c0.096-0.402-0.323-0.744,0.097-0.885
				c0.566-0.189,1.227-0.628,1.894-0.478c0.981,0.222-0.526,1.025-0.77,1.162C17.724,36.548,17.404,37.52,16.73,37.552z
				 M17.938,37.96c0.769,0.187-0.161,0.679-0.354,0.813c-0.271,0.188-0.684,0.412-1.086,0.209
				C15.914,38.689,17.623,37.883,17.938,37.96z M16.126,36.796c0.295,0.532-1.033,1.979-1.883,0.944
				C14.266,37.252,15.628,35.899,16.126,36.796z M14.029,34.803c-0.124-0.229-0.421-0.36-0.444-0.639
				c0.18-0.192,0.41-0.331,0.597-0.512c0.511-0.5-0.132-0.497-0.42-0.967c0.93-0.127,2.503-0.966,3.408,0.032
				c-0.202,0.317-0.829,0.475-1.171,0.637c-0.23,0.109-0.507,0.212-0.668,0.405c-0.298,0.357,0.298,0.501,0.629,0.534
				c0.613-0.067,1.691-0.456,2.329-0.256c0.75,0.235-0.807,1.093-0.974,1.139c-0.431,0.122-0.902,0.326-1.114-0.107
				c-0.119-0.241-0.278-0.279-0.443-0.351c-0.617,0.004-0.999,0-1.57,0.205c1.558,0.804-0.513,2.151-1.405,1.395
				C12.075,35.72,13.702,35.04,14.029,34.803z M20.371,33.447c-0.596-0.143-1.059,0.157-1.638,0.13
				c-0.188-0.009-0.989-0.205-0.648-0.492c0.244-0.205,0.631-0.224,0.901-0.391c0.329-0.204,0.484-0.502,0.701-0.801
				c0.569-0.788,2.015-0.81,2.942-0.5c1.022,0.34,2.005,0.845,2.902,1.503c-0.901,0.311-1.84,0.554-2.827,0.748
				c-0.39,0.077-0.769,0.313-1.201,0.287C21.108,33.908,20.764,33.541,20.371,33.447z M27.987,31.189c0,0,0.668,0.236,0.979,0.432
				c0.209,0.132,0.42,0.253,0.631,0.374c0.666,0.381,1.329,0.804,1.959,1.265c0.354,0.258,0.697,0.528,1.027,0.809
				c0.132,0.114,0.264,0.233,0.402,0.336c-0.034-0.021-0.07-0.044-0.104-0.067c-0.267-0.183-0.534-0.381-0.808-0.56
				c-0.258-0.169-0.52-0.29-0.782-0.449c-0.333-0.203-0.668-0.412-0.997-0.645c-0.122-0.087-0.25-0.153-0.375-0.234
				c-0.32-0.205-0.646-0.466-0.977-0.639c-0.167-0.088-0.335-0.162-0.5-0.264c-0.081-0.051-0.163-0.106-0.239-0.167
				C28.156,31.344,27.987,31.189,27.987,31.189z M30.371,32.905c-1.015-0.468-2.11-0.736-3.081-1.479
				C28.491,31.415,29.38,32.357,30.371,32.905z M22.965,29.704c-0.292-0.082-0.576-0.233-0.86-0.362
				c-0.306-0.139-0.619-0.245-0.924-0.399c-0.243-0.123-0.475-0.223-0.732-0.303c-0.137-0.043-0.313-0.14-0.451-0.148
				c0.239-0.202,0.574-0.304,0.721-0.603c0.048-0.096,0.075-0.199,0.089-0.305c0.396,0.254,0.798,0.497,1.204,0.723
				c0.25,0.139,0.501,0.272,0.753,0.399c0.073,0.038,0.16,0.089,0.252,0.14c-0.104-0.059-0.238,0.214-0.246,0.281
				c-0.023,0.191,0.096,0.381,0.186,0.562C22.959,29.694,22.963,29.699,22.965,29.704z M22.21,26.966
				c0.649,0.278,1.292,0.567,1.922,0.873c0.501,0.244,1.078,0.478,1.523,0.846c0.249,0.206-0.124,0.455-0.264,0.514
				c-0.408,0.172-0.911-0.114-1.349-0.267c-0.248-0.085-0.555-0.146-0.807-0.128c-0.123-0.062-0.26-0.112-0.307-0.136
				c-0.262-0.131-0.523-0.267-0.784-0.411c-0.448-0.248-0.893-0.623-1.331-0.906c0.008-0.405-0.448-1.097-0.448-1.097
				S21.765,26.775,22.21,26.966z M17.603,25.729c0.304,0.092,0.804,0.121,1.234,0.243c0.341,0.097,0.638,0.252,0.766,0.541
				c-0.374,0.687-1.485,0.558-2.223,0.461c-0.643-0.085-1.275-0.04-1.936-0.103c-0.753-0.072-2.915,0.406-3.521-0.281
				c-1.129-1.275,1.611-1.569,2.985-1.406c0.264,0.031,0.482,0.08,0.615,0.138C16.088,25.57,16.968,25.537,17.603,25.729z
				 M11.496,27.668c-0.491,0-1.886,0.366-1.404,1.1c-2.391,0.269,0.324-0.544-0.25-1.241c1.589-0.396,3.21-0.498,4.786-0.447
				c0.844,0.026,1.707-0.022,2.554,0.168c0.822,0.184,0.989,0.684,1.251,1.421c-1.463,0.269-3.045,0.192-4.623,0.327
				c-0.569,0.048-1.113,0.148-1.664,0.279c-0.252,0.076-0.549,0.176-0.836,0.12c-0.475-0.095,0.001-0.377-0.341-0.675
				c0.257-0.116,1.833-0.111,1.436-0.681C12.204,27.749,11.815,27.668,11.496,27.668z M22.812,29.81c0.406,0.19,0.5,0.491,0.6,0.888
				c0.086,0.341-0.047,0.511-0.401,0.422c-0.976-0.247-2.168-0.872-2.873-1.746c-0.278-0.345-0.32-0.556-0.25-0.713
				c0.239-0.005,0.532,0.124,0.769,0.198c0.397,0.126,0.798,0.342,1.176,0.523c0.076,0.037,0.154,0.074,0.231,0.108
				C22.312,29.6,22.563,29.693,22.812,29.81z M21.361,30.824c0.075,0.076-1.563,0.449-1.6,0.453
				c-0.756,0.064-1.339-0.118-2.129-0.292c-0.472-0.103-0.914-0.063-1.289,0.17c0.269,0.3,0.008,0.487-0.208,0.605
				c-0.725,0.396-1.875,0.625-2.8,0.634c-0.233-0.534,0.027-0.803-0.794-0.82c-0.33-0.007-0.997,0.192-1.279-0.122
				c-0.236-0.264,0.131-0.621,0.312-0.772c0.526-0.441,0.046-0.425-0.296-0.827c0.693-0.544,2.949-0.951,3.71-0.163
				c0.39,0.402-1.765,0.851-1.914,0.949c-0.153,0.101-0.412,0.361-0.171,0.516c0.293,0.188,1.096,0.035,1.383-0.018
				c0.218-0.041,0.767-0.051,0.642-0.377c-0.079-0.127-0.116-0.258-0.109-0.393c0.941-0.077,1.321-0.797,2.054-1.144
				C18.306,28.543,20.24,29.685,21.361,30.824z M12.422,33.512c0.248,0.004,0.578,0.204,0.713,0.406
				c0.236,0.352-0.099,0.402-0.323,0.558c-0.137,0.095-0.254,0.215-0.389,0.313c-0.236,0.173-0.579,0.3-0.913,0.132
				c-0.335-0.167-0.446-0.667-0.244-0.903C11.528,33.716,11.976,33.503,12.422,33.512z M11.876,32.029
				c0.296,0.872-0.873,1.129-1.653,1.038C9.751,32.272,11.186,31.507,11.876,32.029z M10.667,30.956
				c-0.255,0.359-1.019,0.906-1.634,0.768C8.242,30.768,10.272,30.151,10.667,30.956z M8.173,29.499
				c0.222-0.148,0.498-0.272,0.785-0.274c0.3-0.001,0.512,0.177,0.588,0.446c-0.303,0.332-0.834,0.515-1.331,0.481
				C8.12,29.755,7.733,29.792,8.173,29.499z M8.006,28.217c0.698,0.382-0.559,1.002-0.986,0.859
				C6.592,28.567,7.564,27.976,8.006,28.217z M7.852,27.353c-0.391,0.306-1.138,0.326-1.324,0.124
				C6.616,27.122,7.733,26.725,7.852,27.353z M7.162,26.268c-0.22,0.244-0.919,0.445-1.26,0.458
				C5.626,26.21,6.946,25.693,7.162,26.268z M7.181,25.106c-0.265,0.304-0.933,0.375-1.195,0.165
				C6.357,25.088,6.864,24.788,7.181,25.106z M6.745,24.107c0.098,0.332-0.655,0.274-0.857,0.308
				C6.015,24.198,6.509,24.107,6.745,24.107z M10.605,25.57c-0.353,0.205-1.336,0.339-1.271,0.896
				c0.783,0.149,1.562,0.071,2.333,0.235c-0.433,0.234-0.937,0.298-1.449,0.349C9.541,27.118,9.93,26.859,9.4,26.699
				c-0.465-0.141-1.025,0.063-1.439-0.275c0.679-0.286,0.962-0.955,1.597-1.063C9.904,25.301,10.408,25.115,10.605,25.57z
				 M11.695,23.948c-0.419,0.146-0.63,0.22-1.052,0.369c0.09,0.267,0.406,0.147,0.469,0.455c-0.288,0.165-0.619,0.248-0.967,0.248
				c-0.636,0-1.276-0.255-1.83-0.587C9.216,23.911,10.628,23.233,11.695,23.948z M11.136,23.08
				c-0.555,0.505-1.268,0.208-1.655-0.216C10.183,22.572,10.724,22.665,11.136,23.08z M16.177,24.486
				c1.095,0.325,2.176,0.754,3.143,1.421c-0.109,0.04-0.263,0.023-0.43-0.016c-0.274-0.065-0.589-0.191-0.806-0.227
				c-0.477-0.077-0.958-0.275-1.442-0.364c-0.534-0.099-1.141-0.11-1.731-0.19c-0.667-0.091-1.318-0.268-1.828-0.761
				C13.809,23.577,15.244,24.209,16.177,24.486z M14.233,23.509c0.252-0.032,1.823,0.543,1.577,0.693
				C15.379,24.023,14.445,24.046,14.233,23.509z M12.329,22.665c-0.355,0.2-1,0.013-1.341-0.33
				C11.495,22.3,11.937,22.418,12.329,22.665z M17.573,24c0.594,0.256,1.177,0.568,1.7,0.972c0.27,0.208,1.058,0.643,1.136,0.993
				c-0.91-0.119-1.994-0.828-2.892-1.183c-0.866-0.342-1.686-0.888-2.44-1.466c0.17,0.112,0.918,0.096,1.129,0.169
				C16.667,23.643,17.125,23.807,17.573,24z M23.435,26.88c0.384,0.559-0.887-0.053-0.997-0.1c-0.576-0.247-1.148-0.545-1.692-0.899
				c-0.541-0.351-1.006-0.803-1.535-1.176c-0.29-0.207-0.854-0.372-1.014-0.727C19.835,24.671,22.327,25.264,23.435,26.88z
				 M25.556,28.247c-0.289-0.162-0.595-0.272-0.877-0.459c-0.531-0.348-0.926-0.878-1.257-1.425c0.511,0.148,1.011,0.36,1.487,0.63
				c0.408,0.23,0.924,0.487,1.188,0.924C25.773,27.964,25.944,28.466,25.556,28.247z M33.571,34.086
				c-0.829-0.821-1.689-1.64-2.599-2.375c-0.595-0.48-1.224-0.908-1.854-1.342c-0.489-0.338-1.085-0.512-0.966-1.147
				c0.004-0.022,1.671,1.161,1.746,1.222c0.984,0.809,2.236,1.739,3.026,2.768C33.128,33.477,33.444,33.762,33.571,34.086z
				 M33.825,34.855c-0.139-0.084-0.282-0.155-0.425-0.225c-0.096-0.107-0.2-0.19-0.311-0.272c-0.157-0.117-0.308-0.25-0.461-0.379
				c-0.294-0.25-0.594-0.492-0.908-0.707c-1.009-0.765-2.05-1.358-3.131-2.052c-0.217-0.14-0.508-0.343-0.578-0.63
				c-0.01-0.039-0.035-0.427,0.069-0.38c0.208,0.096,0.423,0.289,0.614,0.432c1.469,1.09,2.964,2.176,4.276,3.416
				C33.256,34.327,33.58,34.527,33.825,34.855z M27.97,32.942c-0.65-0.168-2.125-0.329-2.606-1.036
				c0.548-0.075,1.131,0.033,1.647-0.125c1.887,0.931,3.851,1.354,5.536,2.555C31.074,33.765,29.545,33.351,27.97,32.942z
				 M33.568,35.377c0,0-4.875,0.62-7.526,1.027c-0.754,0.116-1.761,0.266-2.446,0.564c-0.459,0.2-1.277,0.479-1.831,0.476
				c-0.514,0.308-1.328,0.456-1.993-0.026c-0.403-0.292-0.3-0.477,0.003-0.691c0.258-0.183,0.249-0.369,0.079-0.726
				c0.521-0.403,0.829-0.997,1.31-1.426c0.452-0.403,1.077-0.583,1.681-0.713c0.648-0.14,1.319-0.15,1.95-0.295
				c0.77-0.177,1.283-0.351,2.114-0.063c1.604,0.555,3.157,1.059,4.665,1.424c-0.443,0.421-1.231,0.003-1.821-0.075
				c-0.547-0.072-1.087-0.044-1.632-0.039c-1.003,0.011-1.523-0.216-2.508-0.761c-0.396-0.217-1.148-0.33-1.266,0.165
				c-0.08,0.336,0.045,0.642-0.321,0.768c-0.518,0.179-1.031,0.369-1.5,0.609c0.347,0.168-0.184,0.469,0.512,0.631
				c0.517,0.12,1.029,0.098,1.491,0.016c0.494-0.087,0.968-0.252,1.346-0.534c0.166-0.123,0.313-0.271,0.418-0.456
				c0.353-0.032,0.708-0.048,1.062-0.05c1.3-0.011,2.595,0.18,3.841,0.266c0.543,0.036,1.003-0.046,1.516-0.077
				C32.99,35.376,33.568,35.377,33.568,35.377z M33.408,36.166c-0.075,0.156-0.481,0.399-0.637,0.447
				c-0.474,0.144-0.917,0.195-1.432,0.23c-0.25,0.017-0.499-0.003-0.755-0.011c-0.823-0.028-1.56,0.261-2.379,0.334
				c-0.515,0.046-1.038,0.086-1.533,0.23c-0.561,0.164-1.109,0.4-1.748,0.417c-0.293,0.007-0.4-0.086-0.398-0.205
				c0.002-0.144,0.158-0.323,0.329-0.413c0.268-0.142,0.61-0.161,0.918-0.202c0.694-0.091,1.359-0.202,2.055-0.224
				c0.571-0.018,1.108-0.071,1.659-0.103c0.363-0.021,0.703-0.042,1.067-0.033c0.419,0.009,0.911,0.014,1.317-0.009
				C32.415,36.595,32.967,36.317,33.408,36.166z M34.258,36.96c-0.449,0.191-0.939,0.295-1.401,0.468
				c-0.44,0.165-0.846,0.418-1.307,0.545c-0.468,0.13-0.96,0.216-1.39,0.446c-1.059,0.564-2.02,0.624-3.393,0.422
				c-0.99-0.146-1.928-0.076-2.949-0.185c0.594-0.133,1.104-0.432,1.7-0.506c0.98,0.009,1.902-0.202,2.646-0.657
				c1.386-0.456,3.035-0.275,4.423-0.479c0.351-0.051,0.654-0.228,1.004-0.276c0.133-0.019,0.283-0.034,0.429,0.02
				C34.05,36.769,34.356,36.918,34.258,36.96z M34.574,37.625c-0.127,0.14-0.246,0.29-0.351,0.455
				c-0.113,0.178-0.197,0.386-0.305,0.565c-0.137,0.227-0.256,0.471-0.413,0.673c-0.746,0.965-1.368,2.032-2.103,2.999
				c-0.211,0.278-0.464,0.49-0.74,0.676c0.033-0.402-0.622-1.097-0.356-1.381c0.244-0.261,0.739-0.638,1.021-0.849
				c0.566-0.465,0.993-1.105,1.527-1.576c-0.057-0.124-1.328,1.099-1.466,1.202c-0.606,0.453-1.346,0.763-1.916,1.287
				c-0.506,0.465-0.965,0.993-1.476,1.451c-0.021,0.019-0.044,0.04-0.066,0.059c-0.317,0.28-0.699,0.518-1.034,0.807
				c-0.372-0.254-0.503-0.745-0.379-1.076c0.155-0.412,0.611-0.544,0.96-0.715c0.427-0.21,0.621-0.685,0.981-0.978
				c0.252-0.206,0.559-0.372,0.851-0.511c0.686-0.326,1.354-0.639,1.984-1.023c0.178-0.108,0.356-0.213,0.539-0.313
				c0.111-0.06,0.228-0.112,0.336-0.174c0.087-0.051,0.492-0.22,0.455-0.396c-0.004-0.022-1.856,0.941-1.908,0.968
				c-0.58,0.308-1.203,0.539-1.808,0.831c-0.355,0.172-0.636-0.312-0.917-0.69c-0.001-0.333,0.351-0.476,0.549-0.617
				c0.356-0.254,0.93-0.349,1.384-0.494c0.46-0.147,0.861-0.32,1.313-0.454c0.952-0.498,2.01-0.804,2.975-1.197
				c0.09-0.038,0.556-0.027,0.605,0.117C34.86,37.39,34.622,37.571,34.574,37.625z M35.57,48.389
				c-0.202-1.833,0.136-3.445,0.373-5.095c0.117-0.818,0.215-1.661,0.203-2.55c-0.01-0.813-0.322-1.666-0.348-2.487
				c0.284,0.144,0.403,0.381,0.527,0.691c0.223,0.555,0.272,1.346,0.203,2.127c-0.116,1.278-0.408,2.579-0.46,3.098
				C35.923,45.587,35.906,47.11,35.57,48.389z M34.444,51.206c-0.156-0.426-0.164-0.983-0.205-1.403
				c-0.047-0.477-0.075-0.949-0.086-1.415c-0.022-0.91,0.025-1.797,0.135-2.648c0.064-0.501,0.15-0.989,0.26-1.464
				c0.172-0.751,0.314-1.555,0.432-2.348c0.075-0.498,0.19-0.957,0.25-1.465c0.066-0.566,0.124-1.144,0.274-1.67
				c0.776,2.214,0.146,4.398-0.106,6.274c-0.155,1.145-0.191,2.283-0.123,3.521c0.024,0.426,0.065,0.884-0.021,1.259
				c-0.069,0.303-0.228,0.536-0.364,0.779c0,0,0,0,0,0.001C34.782,50.82,34.65,51.166,34.444,51.206z M33.549,52.385
				c-0.1-0.329-0.187-0.664-0.244-0.991c-0.086-0.498-0.023-0.919-0.041-1.384c-0.05-1.372-0.349-2.773-0.262-4.12
				c0.092-1.432,0.426-2.74,0.881-3.958c0.053-0.141,0.094-0.293,0.143-0.439c0.07-0.21,0.143-0.414,0.221-0.623
				c0.107-0.285,0.149-0.615,0.26-0.9c0.057-0.144,0.116-0.286,0.157-0.443c0.013-0.05,0.063-0.466,0.063-0.466
				s-0.305,0.419-0.375,0.602c-0.095,0.25-0.17,0.501-0.253,0.756c-0.103,0.318-0.232,0.585-0.383,0.86
				c-0.394,0.724-0.709,1.673-0.882,2.556c-0.242,1.238-0.086,2.655-0.097,3.992c-0.001,0.176,0.017,0.965-0.38,0.653
				c-0.162-0.127-0.306-0.695-0.368-0.874c-0.32-0.925-0.419-1.753-0.455-2.635c-0.016-0.401-0.147-0.82-0.12-1.227
				c0.039-0.562,0.053-0.743,0.26-1.211c0.409-0.928,1.195-1.594,1.712-2.449c0.309-0.511,0.62-1.026,0.969-1.504
				c0.146-0.2,0.358-0.321,0.537-0.476c0.088-0.076,0.163-0.161,0.235-0.255c0.056-0.072,0.167-0.026,0.18,0.117
				c0.009,0.088-0.073,0.172-0.1,0.241c-0.268,0.697-0.21,1.575-0.333,2.346c-0.205,1.298-0.522,2.565-0.745,3.78
				c-0.289,1.579-0.365,3.212-0.351,4.95c0.004,0.78,0.167,1.595,0.176,2.379c-0.001,0.055,0,0.109-0.001,0.163
				c-0.002,0.121-0.01,0.236-0.048,0.34C33.888,52.208,33.6,52.552,33.549,52.385z M32.323,51.771
				c0.46-0.655,0.834,0.945,0.537,1.293C32.386,53.621,32.089,52.104,32.323,51.771z M30.939,53.468
				c-0.71-0.411-0.66-2.542,0.102-1.896C31.637,52.078,31.762,53.943,30.939,53.468z M29.39,53.156
				c-0.852-0.405-0.504-2.857,0.252-2.149C30.185,51.516,30.229,53.554,29.39,53.156z M28.031,52.234
				c-0.357,0.296-1.115-1.453-0.531-1.807C28.143,50.038,28.438,51.896,28.031,52.234z M25.744,51.901
				c-0.829-0.388-0.329-2.719,0.662-2.117C27.227,50.284,26.567,52.284,25.744,51.901z"/>
		</g>
		<g>
			<g>
				<path fill="#040000" d="M36.748,39.702c-0.012-0.178-0.02-0.355-0.027-0.533c-0.004-0.091-0.016-0.272-0.016-0.272
					s-0.013,0.013-0.03,0.015c-0.005,0.057-0.013,0.113-0.023,0.167c0.022,0.014,0.009,0.065,0.013,0.121
					c0.013,0.201,0.019,0.402,0.03,0.604c0.021,0.364,0.072,0.724,0.161,1.096c0.147,0.614,0.329,1.237,0.593,1.823
					c0.119,0.264,0.267,0.524,0.451,0.725c0.157,0.17,0.424,0.416,0.582,0.31c0.031-0.022,0.042-0.167,0.042-0.167
					s-0.395-0.122-0.552-0.279c-0.188-0.186-0.333-0.445-0.456-0.702c-0.276-0.58-0.453-1.22-0.603-1.833
					C36.825,40.415,36.772,40.061,36.748,39.702z"/>
			</g>
		</g>
		<g>
			<g>
				<path fill="#040000" d="M38.026,39.19c-0.113-0.138-0.231-0.271-0.346-0.406c-0.06-0.069-0.176-0.208-0.176-0.208
					s0.018,0,0.033-0.009c0.043,0.037,0.086,0.072,0.131,0.105c-0.007,0.026,0.039,0.053,0.074,0.096
					c0.129,0.155,0.262,0.303,0.391,0.456c0.235,0.278,0.446,0.574,0.634,0.902c0.313,0.544,0.61,1.12,0.818,1.726
					c0.093,0.274,0.164,0.564,0.166,0.838c0.002,0.233-0.021,0.596-0.21,0.631c-0.038,0.008-0.145-0.09-0.145-0.09
					s0.204-0.368,0.211-0.59c0.009-0.267-0.063-0.554-0.15-0.825c-0.194-0.61-0.503-1.194-0.814-1.738
					C38.458,39.755,38.254,39.465,38.026,39.19z"/>
			</g>
		</g>
	</g>
</g>
<g>
</g>
<g>
</g>
<g>
</g>
<g>
</g>
<g>
</g>
<g>
</g>
</svg>
